<svg xmlns="http://www.w3.org/2000/svg" width="55" height="13" viewBox="0 0 55 13">
    <defs>
        <rect id="a" width="450" height="426.18" x="287" y="93.82" rx="2"/>
    </defs>
    <g fill="none" fill-rule="evenodd">
        <path fill="#F5F5F5" d="M-337-122H687V902H-337z"/>
        <rect width="451" height="427.18" x="286.5" y="93.32" stroke="#EBEBEB" rx="2" transform="translate(-337 -122)"/>
        <path fill="#936447" d="M0 2.827h3.556c.413 0 .828.028 1.246.085.417.058.792.172 1.125.344.328.168.606.416.808.72.206.308.31.717.31 1.228 0 .528-.15.966-.452 1.314-.3.348-.698.597-1.192.746v.027c.315.044.6.13.856.257.248.123.472.288.66.49.184.197.325.428.424.693.1.27.15.557.148.845 0 .493-.108.905-.323 1.235-.212.326-.498.6-.835.799a3.706 3.706 0 0 1-1.152.436c-.427.088-.85.132-1.273.132H0V2.827zm2.101 3.737h1.522c.162 0 .321-.017.478-.052.158-.036.299-.093.425-.172a.901.901 0 0 0 .303-.317.935.935 0 0 0 .114-.476.85.85 0 0 0-.128-.482.884.884 0 0 0-.33-.297 1.594 1.594 0 0 0-.458-.152 2.801 2.801 0 0 0-.498-.046H2.101v1.994zm0 3.87h1.886c.162 0 .325-.017.492-.052.16-.034.314-.096.45-.185a1.06 1.06 0 0 0 .33-.344.977.977 0 0 0 .129-.515c0-.22-.056-.398-.169-.535a1.066 1.066 0 0 0-.424-.31 2.207 2.207 0 0 0-.552-.145 4.183 4.183 0 0 0-.552-.04H2.1v2.126zm6.6-7.607h2.101v9.35h-2.1v-9.35zm1.118-.608a1.055 1.055 0 0 1-.795-.343c-.099-.107-.179-.23-.235-.364a1.08 1.08 0 0 1-.088-.429c0-.14.03-.277.088-.41.055-.127.135-.244.235-.343a1.25 1.25 0 0 1 .344-.238A.979.979 0 0 1 9.792 0c.315 0 .588.101.822.304.233.202.35.462.35.78 0 .316-.108.585-.323.805a1.1 1.1 0 0 1-.822.33zm2.896.608h2.856l4.054 6.498h.027V2.827h2.101v9.35h-2.748l-4.162-6.656h-.027v6.657h-2.1V2.827zm14.116 0h1.738l4.148 9.35h-2.37l-.822-1.98H25.82l-.795 1.98H22.71l4.122-9.35zm.808 2.72l-1.158 2.906h2.33l-1.172-2.906zm5.819 5.495a1.216 1.216 0 0 1 .357-.865c.112-.11.245-.196.397-.258.154-.062.319-.093.485-.092.17 0 .332.03.485.092a1.178 1.178 0 0 1 .66.647c.063.15.094.309.094.476a1.216 1.216 0 0 1-.357.865c-.112.11-.244.196-.397.258a1.283 1.283 0 0 1-.485.092c-.166.001-.33-.03-.485-.092a1.178 1.178 0 0 1-.66-.647 1.216 1.216 0 0 1-.094-.476zm7.34-8.215h1.738l4.149 9.35h-2.37l-.822-1.98h-3.704l-.795 1.98h-2.317l4.122-9.35zm.809 2.72l-1.158 2.906h2.33l-1.172-2.906zm5.536 4.729l4.835-5.627h-4.66V2.827h7.206v1.822l-4.741 5.627h4.903v1.902h-7.543v-1.902z"/>
    </g>
</svg>
