<svg xmlns="http://www.w3.org/2000/svg" width="107" height="18" viewBox="0 0 107 18">
    <g fill="none" fill-rule="evenodd">
        <path fill="#F5F5F5" d="M-527-542H497V482H-527z"/>
        <g fill="#C5C5C5" opacity=".749" style="mix-blend-mode:luminosity">
            <path d="M8.947 4.14c1.805-1.174 3.726-1.632 5.321-1.409V0H.656v13.09H5.31a3.725 3.725 0 0 1-.154-.28c-1.289-2.59.407-6.473 3.79-8.67z" style="mix-blend-mode:darken"/>
            <path d="M13.843 4.09c-3.525 0-6.381 2.748-6.381 6.138 0 .385.038.763.108 1.128.16.663.526.869.866 1.01.167.068.312.095.394.105a3.485 3.485 0 0 0 2.046-.51c.903-.54 1.573-1.42 1.933-2.422a45.92 45.92 0 0 0-3.246.478l.02-1.924 7.167-.46-.05 6.5-2.165.141.002-.01.032-.203a33.198 33.198 0 0 0 .3-2.65 7.29 7.29 0 0 1-.932.974 7.798 7.798 0 0 1-1.75 1.142c-.491.234-.99.41-1.487.534-.409.1-1.127.148-1.693.169a6.474 6.474 0 0 0 4.836 2.134c3.524 0 6.38-2.747 6.38-6.136 0-3.39-2.857-6.137-6.38-6.137zM34.462 3.394c-.322-1.498-1.66-1.898-3.034-1.898-3.157 0-4.3 2.699-4.227 5.05.143 3.22 1.14 4.978 4.834 5.047a8.51 8.51 0 0 0 2.569-.4V7.64h-2.926V6.144h4.71v6.216c-1.481.435-2.961.73-4.424.73-1.82 0-3.3-.226-4.71-1.444-1.426-1.218-1.926-3.325-1.926-5.1 0-1.306.446-2.733 1.107-3.866C27.558.765 29.448 0 31.643 0c2.177 0 4.585.974 4.692 3.395h-1.873v-.001z"/>
            <path fill-rule="nonzero" d="M40.814 8.895c-.132 1.489.544 3.028 2.362 3.028 1.386 0 2.08-.49 2.286-1.726h1.875c-.282 1.929-1.931 2.894-4.18 2.894-3.017 0-4.217-1.928-4.217-4.432 0-2.487 1.386-4.568 4.367-4.568 2.81.051 4.14 1.659 4.14 4.01v.794h-6.633zm4.76-1.116c.038-1.422-.674-2.521-2.398-2.521-1.481 0-2.362 1.133-2.362 2.52h4.76zM57.656 8.59c0 2.64-1.59 4.5-4.678 4.5-3.089 0-4.68-1.86-4.68-4.5 0-2.638 1.591-4.5 4.68-4.5 3.087 0 4.678 1.862 4.678 4.5zm-4.678 3.333c2.114 0 2.807-1.523 2.807-3.333 0-1.81-.693-3.332-2.807-3.332-2.116 0-2.808 1.522-2.808 3.332 0 1.81.692 3.333 2.808 3.333z"/>
            <path d="M59.173 3.198h-4.069V.818h11.91v2.38h-4.16v9.893h-3.681z"/>
            <path d="M68.958 5.99h.037c.41-1.445 1.563-1.932 3.124-1.897v2.802c-.26-.017-.501-.017-.744-.017-1.84.017-2.472 1.044-2.417 2.715v3.498h-3.533V6.599c0-.784-.019-1.305-.112-2.245h3.59l.055 1.636zM79.789 11.872c-.744.87-1.61 1.219-2.715 1.219-1.87 0-3.253-1.219-3.253-3.151V4.09h3.287v5.136c.034.853.24 1.775 1.262 1.775 1.626 0 1.418-1.793 1.418-1.897V4.091h3.287v6.492c0 .785.018 1.307.104 2.246H79.84l-.052-.957zM91.44 6.968c0-.288-.059-.542-.233-.71-.194-.187-.504-.305-1.01-.305-.543 0-.873.27-.873.76 0 .626 1.495.594 3.804 1.219 1.165.321 1.961.947 1.961 2.334 0 2.249-2.426 2.825-4.66 2.825-2.387 0-4.716-.423-4.698-3.011h3.495c-.058.254.039.541.252.76.214.22.525.39.875.39.718 0 1.24-.237 1.24-.778 0-1.507-5.765-.61-5.765-3.689 0-2.096 2.563-2.672 4.505-2.672 2.31 0 4.446.524 4.602 2.876H91.44zM96.976 4.367V2.965l3.655-1.329v2.732h2.115v2.214h-2.115v3.672c0 .24-.155 1.44.692 1.44.481 0 .981 0 1.404-.055v2.086c-.826.147-1.423.184-1.962.184-2.481 0-3.982-.332-3.79-3.174V6.582H95.09V4.367h1.887z"/>
            <path fill-rule="nonzero" d="M107 5.324c0 .34-.124.627-.374.865-.249.239-.55.356-.9.356a1.26 1.26 0 0 1-.904-.356 1.15 1.15 0 0 1-.374-.865c0-.34.124-.632.374-.872s.55-.361.903-.361c.351 0 .652.12.901.36.25.24.374.532.374.873zm-.302 0a.932.932 0 0 0-.286-.677.932.932 0 0 0-.69-.29.928.928 0 0 0-.688.29.936.936 0 0 0-.285.677c0 .257.095.482.285.676.19.194.419.29.688.29a.933.933 0 0 0 .69-.29.929.929 0 0 0 .286-.676zm-.816.642v-.233a.471.471 0 0 0-.054-.238c-.037-.066-.087-.1-.149-.1h-.093v.571h-.329V4.652h.53c.143 0 .25.027.32.08a.247.247 0 0 1 .109.206v.113c0 .072-.021.131-.063.177a.287.287 0 0 1-.153.09.391.391 0 0 1 .198.196.587.587 0 0 1 .054.237v.214h-.37zm.033-.902V5.04v-.027a.157.157 0 0 0-.039-.105.119.119 0 0 0-.095-.043h-.195v.353h.195c.046 0 .08-.012.1-.037.022-.025.034-.064.034-.117z"/>
            <path d="M22.776 11.046c0 3.839-3.812 6.954-8.509 6.954-4.697 0-8.507-3.115-8.507-6.954 0-3.84 3.812-6.955 8.508-6.955s8.508 3.116 8.508 6.955z"/>
            <path d="M13.842 4.09c-3.524 0-6.38 2.749-6.38 6.138 0 .385.038.762.108 1.128.16.663.526.869.866 1.009.167.069.313.095.395.106a3.483 3.483 0 0 0 2.045-.51c.904-.54 1.574-1.42 1.934-2.422-1.12.124-2.205.286-3.246.478l.02-1.924 7.166-.46-.05 6.5-2.165.141.002-.01.033-.204a33.203 33.203 0 0 0 .3-2.648 7.33 7.33 0 0 1-.932.972 7.758 7.758 0 0 1-1.751 1.143c-.49.233-.989.41-1.487.534-.409.1-1.127.148-1.692.169a6.473 6.473 0 0 0 4.836 2.134c3.523 0 6.38-2.747 6.38-6.136-.002-3.39-2.858-6.137-6.382-6.137z" style="mix-blend-mode:darken"/>
        </g>
    </g>
</svg>
