<svg xmlns="http://www.w3.org/2000/svg" xmlns:xlink="http://www.w3.org/1999/xlink" width="58" height="58" viewBox="0 0 58 58">
    <defs>
        <filter id="a" width="106%" height="106.3%" x="-3%" y="-3.2%" filterUnits="objectBoundingBox">
            <feOffset dy="2" in="SourceAlpha" result="shadowOffsetOuter1"/>
            <feGaussianBlur in="shadowOffsetOuter1" result="shadowBlurOuter1" stdDeviation="2.5"/>
            <feColorMatrix in="shadowBlurOuter1" result="shadowMatrixOuter1" values="0 0 0 0 0.599569515 0 0 0 0 0.599569515 0 0 0 0 0.599569515 0 0 0 0.163185009 0"/>
            <feMerge>
                <feMergeNode in="shadowMatrixOuter1"/>
                <feMergeNode in="SourceGraphic"/>
            </feMerge>
        </filter>
        <rect id="b" width="450" height="427" rx="5"/>
    </defs>
    <g fill="none" fill-rule="evenodd">
        <path fill="#F1F2F4" d="M-483-206H541V818H-483z"/>
        <use fill="#FCFCFC" filter="url(#a)" transform="translate(-196 -112)" xlink:href="#b"/>
        <g>
            <circle cx="29" cy="29" r="29" fill="#007EFF"/>
            <path fill="#0671DF" d="M58 28.807C58 44.863 44.863 58 28.807 58 19.502 58 11.291 53.804 6 47.053c4.926 4.014 11.312 6.386 18.246 6.386 16.056 0 29.193-13.137 29.193-29.193 0-6.934-2.372-13.32-6.386-18.246C53.803 11.291 58 19.502 58 28.807z"/>
            <path fill="#FFF" d="M45.209 20.222L26.43 40.912c-1.264 1.451-3.431 1.451-4.695 0l-7.945-8.893c-1.083-1.27-1.083-3.267.18-4.537a3.328 3.328 0 0 1 4.515.181l5.597 6.352 16.431-17.967c1.264-1.27 3.25-1.451 4.514-.181 1.264 1.089 1.264 3.267.18 4.355z"/>
        </g>
    </g>
</svg>
