<svg xmlns="http://www.w3.org/2000/svg" width="24" height="15" viewBox="0 0 24 15">
    <g fill="none" fill-rule="evenodd">
        <path fill="#7673C0" d="M8.382 1.609h6.192v11.632H8.382z"/>
        <path fill="#EB001B" d="M8.775 7.426c-.002-2.27.995-4.415 2.703-5.817C8.577-.775 4.41-.427 1.906 2.406c-2.503 2.834-2.503 7.204 0 10.038 2.504 2.833 6.67 3.18 9.572.797C9.77 11.84 8.774 9.696 8.775 7.426z"/>
        <path fill="#00A1DF" fill-rule="nonzero" d="M22.35 12.28v-.447h.154v-.096h-.393v.096h.156v.464l.082-.016zm.761 0v-.56h-.118l-.139.4-.139-.4h-.122v.56h.086v-.42l.129.365h.089l.129-.364v.424l.085-.004z"/>
        <path fill="#00A1DF" d="M22.927 7.426c0 2.831-1.547 5.414-3.984 6.652-2.436 1.237-5.335.912-7.465-.837 1.708-1.402 2.704-3.546 2.704-5.816s-.996-4.414-2.704-5.816c2.13-1.75 5.03-2.076 7.467-.838 2.437 1.237 3.984 3.82 3.984 6.653l-.002.002z"/>
    </g>
</svg>
