<svg xmlns="http://www.w3.org/2000/svg" width="40" height="20" viewBox="0 0 40 20">
    <g fill="none" fill-rule="evenodd">
        <path fill="#F5F5F5" d="M-391-541H633V483H-391z"/>
        <g fill="#C5C5C5">
            <path d="M2.184 6.99L.064.515h.909L1.989 3.7c.281.882.52 1.656.692 2.43h.022c.173-.753.454-1.57.735-2.409L4.54.516h.908L3.114 6.99h-.93z"/>
            <path fill-rule="nonzero" d="M5.903 4.817c.021 1.14.756 1.613 1.6 1.613.605 0 .973-.107 1.297-.236l.151.602c-.302.129-.821.28-1.556.28-1.45 0-2.292-.947-2.292-2.345 0-1.398.821-2.516 2.183-2.516 1.536 0 1.925 1.333 1.925 2.194 0 .172-.022.3-.022.387l-3.286.021zm2.486-.602C8.411 3.677 8.173 2.84 7.2 2.84c-.865 0-1.232.795-1.297 1.376h2.486z"/>
            <path d="M9.881 3.785c0-.538 0-1.01-.043-1.44h.735l.022.902h.043c.216-.623.735-1.01 1.297-1.01.087 0 .173 0 .238.021v.796c-.087-.022-.173-.022-.281-.022-.606 0-1.016.452-1.146 1.076a2.12 2.12 0 0 0-.043.387v2.473h-.844V3.785h.022z"/>
            <path fill-rule="nonzero" d="M13.643 1.032c0 .28-.194.516-.54.516a.51.51 0 0 1-.52-.516c0-.3.217-.537.541-.537.303 0 .52.236.52.537zm-.951 1.312h.843V6.99h-.843V2.344z"/>
            <path d="M14.66 6.99v-4h-.65v-.646h.65V2.13c0-.645.15-1.247.54-1.634.324-.301.735-.43 1.146-.43.303 0 .562.064.735.129l-.108.645a1.197 1.197 0 0 0-.54-.108c-.714 0-.909.624-.909 1.355v.258h1.125v.645h-1.125v4h-.865z"/>
            <path fill-rule="nonzero" d="M18.4 1.032c.022.28-.195.516-.54.516a.51.51 0 0 1-.52-.516c0-.3.217-.537.541-.537.324 0 .519.236.519.537zm-.951 1.312h.843V6.99h-.843V2.344zM19.805 4.817c.022 1.14.757 1.613 1.6 1.613.606 0 .973-.107 1.298-.236l.151.602c-.303.129-.822.28-1.557.28-1.448 0-2.292-.947-2.292-2.345 0-1.398.822-2.516 2.184-2.516 1.535 0 1.925 1.333 1.925 2.194 0 .172-.022.3-.022.387l-3.287.021zm2.487-.602c0-.538-.216-1.376-1.19-1.376-.864 0-1.232.795-1.297 1.376h2.487zM27.827.172v5.613c0 .409 0 .882.043 1.204h-.756l-.044-.817h-.021c-.26.516-.822.903-1.6.903-1.125 0-1.99-.946-1.99-2.365 0-1.549.952-2.495 2.098-2.495.713 0 1.189.344 1.405.71h.022V.172h.843zm-.843 4.065c0-.108 0-.259-.043-.366-.13-.538-.584-.99-1.233-.99-.886 0-1.405.775-1.405 1.807 0 .946.454 1.72 1.383 1.72.563 0 1.082-.365 1.255-1.01.021-.108.043-.237.043-.366v-.795zM30.962 6.99c.022-.323.043-.796.043-1.205V.172h.844v2.925h.021c.303-.516.844-.86 1.6-.86 1.168 0 1.99.967 1.968 2.365 0 1.656-1.06 2.495-2.097 2.495-.67 0-1.211-.258-1.557-.882h-.022l-.043.774h-.757zm.887-1.872c0 .108.021.215.043.301.173.581.649.99 1.276.99.886 0 1.427-.732 1.427-1.785 0-.925-.476-1.72-1.384-1.72-.584 0-1.125.386-1.297 1.031a1.489 1.489 0 0 0-.044.345v.838h-.021z"/>
            <path d="M36.368 2.344l1.016 2.753c.108.3.216.666.302.946h.022c.087-.28.173-.645.303-.968l.93-2.73h.908l-1.276 3.31c-.605 1.592-1.016 2.41-1.6 2.904-.41.366-.822.516-1.038.538l-.216-.71c.216-.064.497-.193.735-.409.238-.172.519-.516.714-.946a.493.493 0 0 0 .064-.193.698.698 0 0 0-.064-.215l-1.73-4.28h.93z"/>
            <g>
                <path d="M14.162 10.15l-2.573 6.474-1.038-5.506c-.13-.623-.605-.967-1.146-.967H5.19l-.065.28c.865.193 1.838.494 2.444.816.367.194.475.366.583.839l1.968 7.591h2.638l4.021-9.526h-2.616zM17.838 10.15l-2.054 9.527h2.486l2.033-9.526zM23.568 12.796c0-.344.346-.71 1.059-.796.346-.043 1.34-.086 2.443.43l.433-2.021c-.606-.215-1.362-.43-2.314-.43-2.443 0-4.173 1.29-4.194 3.16-.022 1.377 1.232 2.13 2.162 2.581.973.474 1.297.753 1.275 1.183 0 .645-.778.925-1.47.925-1.254.021-1.967-.344-2.551-.602l-.454 2.086c.584.258 1.643.494 2.746.494 2.594 0 4.302-1.268 4.302-3.268.044-2.473-3.46-2.624-3.437-3.742"/>
                <path fill-rule="nonzero" d="M30.724 16.301l1.32-3.57.734 3.57h-2.054zm.952-6.15c-.476 0-.887.28-1.06.688l-3.719 8.817h2.595l.519-1.42h3.178l.303 1.42h2.292l-1.99-9.527h-2.118v.022z"/>
            </g>
        </g>
    </g>
</svg>
