<?xml version="1.0" encoding="utf-8"?>
<!-- Generator: Adobe Illustrator 17.1.0, SVG Export Plug-In . SVG Version: 6.00 Build 0)  -->
<!DOCTYPE svg PUBLIC "-//W3C//DTD SVG 1.1//EN" "http://www.w3.org/Graphics/SVG/1.1/DTD/svg11.dtd">
<svg version="1.1" id="Layer_1" xmlns="http://www.w3.org/2000/svg" xmlns:xlink="http://www.w3.org/1999/xlink" x="0px" y="0px"
	 viewBox="0 0 31 19" enable-background="new 0 0 31 19" xml:space="preserve">
<g>
	<path fill="#F79F1A" d="M31,9.5c0,5.2467-4.2921,9.5-9.5866,9.5s-9.5867-4.2533-9.5867-9.5S16.1188,0,21.4134,0S31,4.2533,31,9.5"
		/>
	<path fill="#EA001B" d="M19.1734,9.5c0,5.2467-4.2921,9.5-9.5867,9.5S0,14.7467,0,9.5S4.2921,0,9.5867,0
		S19.1734,4.2533,19.1734,9.5"/>
	<path fill="#FF5F01" d="M15.5,2.0215c-2.2368,1.7391-3.6726,4.4417-3.6726,7.4776c0,3.0359,1.4358,5.7405,3.6726,7.4797
		c2.2368-1.7391,3.6727-4.4437,3.6727-7.4797C19.1727,6.4632,17.7368,3.7607,15.5,2.0215"/>
</g>
</svg>
