<?xml version="1.0" encoding="utf-8"?>
<!-- Generator: Adobe Illustrator 17.1.0, SVG Export Plug-In . SVG Version: 6.00 Build 0)  -->
<!DOCTYPE svg PUBLIC "-//W3C//DTD SVG 1.1//EN" "http://www.w3.org/Graphics/SVG/1.1/DTD/svg11.dtd">
<svg version="1.1" id="Layer_1" xmlns="http://www.w3.org/2000/svg" xmlns:xlink="http://www.w3.org/1999/xlink" x="0px" y="0px"
	 viewBox="0 0 37 13" enable-background="new 0 0 37 13" xml:space="preserve">
<g>
	<defs>
		<path id="SVGID_1_" d="M10.9852,1.0486L8.0414,8.4895l-1.1907-6.327c-0.1398-0.7062-0.6916-1.114-1.3043-1.114H0.7339
			L0.6667,1.366C1.6546,1.5803,2.7771,1.9261,3.457,2.2961c0.4162,0.226,0.5349,0.4236,0.6715,0.9606l2.2555,8.7243h2.989
			l4.5823-10.9324H10.9852z M15.1692,1.0486l-2.3395,10.9324h2.8283l2.3384-10.9324H15.1692z M31.3839,4.0019l0.8566,4.1051h-2.3458
			L31.3839,4.0019z M30.9687,1.0486c-0.5422,0-0.9994,0.3163-1.2034,0.8018l-4.2429,10.1305h2.968l0.5907-1.6322h3.627
			l0.3426,1.6322h2.6159L33.3839,1.0486H30.9687z M18.7678,4.4622c-0.02,1.5743,1.4031,2.453,2.4752,2.9753
			c1.1014,0.536,1.4713,0.8797,1.4671,1.359C22.7016,9.53,21.8314,9.8537,21.017,9.8663c-1.421,0.0221-2.2471-0.3836-2.9039-0.6905
			l-0.5119,2.3953c0.659,0.3037,1.8791,0.5686,3.1445,0.5801c2.9701,0,4.9134-1.4661,4.9239-3.7394
			c0.0115-2.885-3.9906-3.0447-3.9633-4.3343c0.0095-0.391,0.3826-0.8082,1.2002-0.9144c0.4047-0.0536,1.5218-0.0946,2.7883,0.4887
			l0.4971-2.3174c-0.681-0.248-1.5565-0.4856-2.6464-0.4856C20.75,0.8488,18.7836,2.335,18.7678,4.4622"/>
	</defs>
	<clipPath id="SVGID_2_">
		<use xlink:href="#SVGID_1_"  overflow="visible"/>
	</clipPath>
	
		<linearGradient id="SVGID_3_" gradientUnits="userSpaceOnUse" x1="-640.7017" y1="368.9744" x2="-640.6314" y2="368.9744" gradientTransform="matrix(419.708 -154.5691 154.5691 419.708 211879.4375 -253882.4375)">
		<stop  offset="0" style="stop-color:#222357"/>
		<stop  offset="1" style="stop-color:#254AA5"/>
	</linearGradient>
	<polygon clip-path="url(#SVGID_2_)" fill="url(#SVGID_3_)" points="4.8467,23.5015 39.3319,10.8013 31.4866,-10.5015 
		-2.9986,2.1987 	"/>
</g>
</svg>
