<svg xmlns="http://www.w3.org/2000/svg" xmlns:xlink="http://www.w3.org/1999/xlink" width="31" height="10" viewBox="0 0 31 10">
    <defs>
        <path id="a" d="M15.35.21l-2.072 9.64h-2.505L12.845.21h2.504zm10.538 6.224l1.319-3.619.759 3.62h-2.078zm2.795 3.415H31L28.978.211H26.84c-.481 0-.887.278-1.067.707l-3.758 8.931h2.63l.522-1.44h3.213l.303 1.44zm-6.538-3.147c.011-2.543-3.534-2.684-3.51-3.82.008-.346.339-.713 1.063-.808.358-.046 1.348-.082 2.47.432l.44-2.044a6.76 6.76 0 0 0-2.344-.427c-2.476 0-4.218 1.31-4.232 3.185-.017 1.389 1.243 2.162 2.193 2.624.975.472 1.303.775 1.299 1.198-.007.647-.778.932-1.5.943-1.259.02-1.99-.339-2.572-.61l-.454 2.113c.585.267 1.666.5 2.786.512 2.632 0 4.353-1.293 4.36-3.298zM11.77.211L7.71 9.849H5.063L3.066 2.157c-.121-.473-.226-.647-.595-.846C1.87.985.875.68 0 .49L.059.21h4.263c.543 0 1.031.36 1.155.982l1.055 5.578L9.139.211h2.63z"/>
        <linearGradient id="b" x1="0%" y1="50%" y2="50%">
            <stop offset="0%" stop-color="#1D1C45"/>
            <stop offset="100%" stop-color="#174489"/>
        </linearGradient>
    </defs>
    <g fill="none" fill-rule="evenodd">
        <mask id="c" fill="#fff">
            <use xlink:href="#a"/>
        </mask>
        <path fill="url(#b)" d="M15.35.21l-2.072 9.64h-2.505L12.845.21h2.504zm10.538 6.224l1.319-3.619.759 3.62h-2.078zm2.795 3.415H31L28.978.211H26.84c-.481 0-.887.278-1.067.707l-3.758 8.931h2.63l.522-1.44h3.213l.303 1.44zm-6.538-3.147c.011-2.543-3.534-2.684-3.51-3.82.008-.346.339-.713 1.063-.808.358-.046 1.348-.082 2.47.432l.44-2.044a6.76 6.76 0 0 0-2.344-.427c-2.476 0-4.218 1.31-4.232 3.185-.017 1.389 1.243 2.162 2.193 2.624.975.472 1.303.775 1.299 1.198-.007.647-.778.932-1.5.943-1.259.02-1.99-.339-2.572-.61l-.454 2.113c.585.267 1.666.5 2.786.512 2.632 0 4.353-1.293 4.36-3.298zM11.77.211L7.71 9.849H5.063L3.066 2.157c-.121-.473-.226-.647-.595-.846C1.87.985.875.68 0 .49L.059.21h4.263c.543 0 1.031.36 1.155.982l1.055 5.578L9.139.211h2.63z" mask="url(#c)"/>
    </g>
</svg>
