<svg xmlns="http://www.w3.org/2000/svg" width="56" height="20" viewBox="0 0 56 20">
    <g fill="none" fill-rule="evenodd">
        <path fill="#F5F5F5" d="M-451-541H573V483H-451z"/>
        <g fill="#C5C5C5">
            <path d="M52.935 7.897c0-.61.474-1.102 1.054-1.102.582 0 1.052.493 1.052 1.102 0 .61-.47 1.103-1.052 1.103-.58 0-1.054-.493-1.054-1.103zm1.054.841c.443 0 .804-.378.804-.841 0-.462-.361-.836-.804-.836-.441 0-.804.374-.804.836 0 .463.363.841.804.841zm-.143-.358h-.216v-.971h.391c.08 0 .169.005.237.053a.301.301 0 0 1 .118.244.258.258 0 0 1-.159.245l.17.429h-.24L54.002 8h-.158v.38zm0-.546h.12c.044 0 .095.002.132-.02.037-.024.053-.07.053-.112 0-.037-.021-.08-.053-.098-.032-.022-.097-.017-.135-.017h-.117v.247zM37.863.569l-.288 1.868c-.627-.331-1.087-.461-1.58-.461-1.312 0-2.24 1.327-2.24 3.223 0 1.31.622 2.098 1.648 2.098.435 0 .913-.139 1.498-.444l-.308 1.967c-.647.185-1.07.251-1.559.251-1.902 0-3.084-1.427-3.084-3.718 0-3.081 1.634-5.233 3.972-5.233.302 0 .572.03.79.093l.728.19c.216.084.265.097.423.166zM32.01 1.85a.974.974 0 0 0-.18-.019c-.582 0-.91.306-1.45 1.14l.157-1.064h-1.598l-1.083 7.006h1.773c.633-4.282.795-5.021 1.645-5.021.052 0 .056 0 .129.007.157-.844.371-1.465.667-2.031l-.06-.018zM21.451 8.827c-.48.159-.858.23-1.265.23-.9 0-1.392-.545-1.392-1.54 0-.195.015-.406.05-.628l.11-.683.08-.558.766-4.78h1.753l-.201 1.04h.902l-.248 1.702h-.9l-.466 2.924c-.016.129-.03.224-.03.29 0 .359.185.519.602.519.203 0 .356-.021.474-.065l-.235 1.549zM14.5 4.123c0 .884.408 1.495 1.336 1.952.71.351.822.454.822.773 0 .435-.315.636-1.009.636a4.69 4.69 0 0 1-1.577-.28l-.244 1.616.08.017.324.068c.104.022.257.042.46.063.42.04.743.058.97.058 1.851 0 2.707-.743 2.707-2.339 0-.958-.357-1.525-1.238-1.95-.736-.348-.82-.43-.82-.756 0-.38.292-.575.859-.575.345 0 .814.04 1.261.104l.252-1.617a11.065 11.065 0 0 0-1.548-.139c-1.963 0-2.643 1.076-2.636 2.369zM51.91 8.913h-1.668l.087-.687c-.486.542-.985.78-1.63.78-1.29 0-2.134-1.157-2.134-2.909 0-2.33 1.313-4.297 2.873-4.297.685 0 1.204.295 1.692.959l.383-2.461h1.739L51.91 8.913zm-2.602-1.65c.824 0 1.4-.973 1.4-2.36 0-.89-.329-1.375-.938-1.375-.8 0-1.367.977-1.367 2.356 0 .917.305 1.38.905 1.38zM27.037 8.765a5.867 5.867 0 0 1-1.812.282c-1.966 0-2.994-1.077-2.994-3.136 0-2.408 1.307-4.18 3.084-4.18 1.449 0 2.38.994 2.38 2.55 0 .516-.063 1.018-.22 1.728h-3.507a1.386 1.386 0 0 0-.017.217c0 .82.525 1.231 1.551 1.231.63 0 1.196-.135 1.83-.445l-.295 1.753zm-.989-4.171c.01-.146.012-.266.012-.354 0-.573-.31-.907-.835-.907-.559 0-.96.446-1.124 1.256l1.947.005zM7.418 8.913H5.656l1.01-6.62-2.255 6.62H3.203l-.146-6.581-1.063 6.58H.344L1.72.299H4.26l.07 5.33L6.044.299h2.74zM11.959 5.792a2.964 2.964 0 0 0-.395-.03c-1 0-1.506.362-1.506 1.07 0 .435.249.713.634.713.717 0 1.237-.714 1.267-1.753zm1.282 3.12h-1.46l.032-.727c-.445.58-1.04.85-1.848.85-.96 0-1.614-.781-1.614-1.91 0-1.71 1.144-2.702 3.1-2.702.2 0 .455.015.717.052.055-.232.07-.332.07-.455 0-.463-.306-.638-1.133-.638-.499 0-1.072.075-1.466.2l-.246.07-.154.046.243-1.571c.88-.272 1.46-.377 2.114-.377 1.515 0 2.318.711 2.318 2.054 0 .348-.026.607-.146 1.39L13.4 7.674l-.06.449-.045.357-.03.244-.023.188zM40.901 5.792a2.926 2.926 0 0 0-.392-.03c-1.003 0-1.51.362-1.51 1.07 0 .435.25.713.636.713.72 0 1.235-.714 1.266-1.753zm1.284 3.12h-1.462l.034-.727c-.445.58-1.041.85-1.848.85-.959 0-1.616-.781-1.616-1.91 0-1.71 1.143-2.702 3.102-2.702.199 0 .456.015.717.052.054-.232.07-.332.07-.455 0-.463-.306-.638-1.133-.638-.502 0-1.073.075-1.464.2l-.251.07-.153.046.246-1.571c.881-.272 1.46-.377 2.109-.377 1.518 0 2.32.711 2.32 2.054 0 .348-.03.607-.144 1.39l-.372 2.481-.054.449-.05.357-.032.244-.019.188zM47.111 1.85a.884.884 0 0 0-.177-.019c-.579 0-.91.306-1.452 1.14l.157-1.064h-1.595l-1.079 7.006h1.766c.635-4.282.801-5.021 1.645-5.021.055 0 .051-.005.123.007.16-.844.376-1.465.672-2.031l-.06-.018z"/>
        </g>
        <g fill="#D0D0D0">
            <path d="M39.711 15.707c0 1.588-.494 2.523-1.273 2.523-.569.017-.913-.613-.913-1.556 0-1.116.503-2.38 1.312-2.38.65 0 .874.685.874 1.413zm1.735.029c0-1.766-.877-3.14-2.525-3.14-1.897 0-3.125 1.671-3.125 4.131 0 1.76.726 3.2 2.522 3.2 1.812 0 3.128-1.276 3.128-4.191zM36.363 11.357l-.27 1.867c-.586-.33-1.013-.466-1.474-.466-1.232 0-2.093 1.333-2.093 3.23 0 1.308.576 2.1 1.536 2.1.41 0 .858-.14 1.401-.445l-.285 1.966c-.61.186-1.007.25-1.46.25-1.776 0-2.881-1.427-2.881-3.719 0-3.082 1.526-5.234 3.712-5.234.283 0 .534.036.74.093l.675.19c.208.082.252.097.399.168zM25.457 12.64a.649.649 0 0 0-.17-.02c-.534 0-.848.308-1.349 1.14l.146-1.063h-1.491l-1.007 7.006h1.647c.592-4.286.749-5.023 1.538-5.023.047 0 .052 0 .12.007.15-.847.349-1.468.626-2.035l-.06-.012zM46.968 19.628h-1.556l.08-.684c-.452.54-.923.778-1.525.778-1.2 0-1.993-1.158-1.993-2.91 0-2.325 1.23-4.299 2.684-4.299.642 0 1.128.302 1.578.966l.363-2.463h1.621l-1.252 8.612zm-2.434-1.648c.775 0 1.31-.973 1.31-2.36 0-.893-.305-1.373-.872-1.373-.749 0-1.281.974-1.281 2.357 0 .913.285 1.376.843 1.376zM10.014 19.599a5.092 5.092 0 0 1-1.687.285c-1.84 0-2.8-1.079-2.8-3.137 0-2.404 1.222-4.178 2.88-4.178 1.357 0 2.222.992 2.222 2.548 0 .515-.058 1.019-.2 1.73H7.148c-.01.104-.013.156-.013.217 0 .817.491 1.229 1.447 1.229.588 0 1.12-.137 1.71-.444l-.277 1.75zm-.92-4.168a7.59 7.59 0 0 0 .011-.356c0-.571-.289-.906-.778-.906-.526 0-.9.45-1.051 1.255l1.817.007zM29.604 19.599a5.113 5.113 0 0 1-1.687.285c-1.843 0-2.802-1.079-2.802-3.137 0-2.404 1.222-4.178 2.879-4.178 1.357 0 2.226.992 2.226 2.548 0 .515-.062 1.019-.208 1.73h-3.275c-.01.104-.016.156-.016.217 0 .817.49 1.229 1.446 1.229.588 0 1.122-.137 1.712-.444l-.275 1.75zm-.926-4.168c.011-.148.017-.266.017-.356 0-.571-.291-.906-.779-.906-.526 0-.9.45-1.052 1.255l1.814.007zM52.588 19.599a5.151 5.151 0 0 1-1.692.285c-1.84 0-2.802-1.079-2.802-3.137 0-2.404 1.225-4.178 2.881-4.178 1.358 0 2.222.992 2.222 2.548 0 .515-.056 1.019-.202 1.73h-3.279a1.783 1.783 0 0 0-.014.217c0 .817.492 1.229 1.448 1.229.589 0 1.12-.137 1.711-.444l-.273 1.75zm-.926-4.168c.007-.148.012-.266.012-.356 0-.571-.288-.906-.778-.906-.527 0-.899.45-1.052 1.255l1.818.007zM5.139 12.957a2.397 2.397 0 0 0-1.376-.402c-.666 0-1.201.137-1.201.842 0 1.244 2.427.78 2.427 3.445 0 2.427-1.602 3.057-3.051 3.057-.645 0-1.387-.212-1.934-.454l.394-1.784c.33.298.995.502 1.54.502.518 0 1.331-.14 1.331-1.041 0-1.41-2.426-.886-2.426-3.361 0-2.265 1.417-2.943 2.784-2.943.77 0 1.494.112 1.918.393l-.406 1.746zM14.836 19.597c-.34.162-.793.269-1.463.269-1.439 0-2.332-1.431-2.332-3.174 0-2.28 1.292-4.1 3.192-4.1.414 0 1.047.178 1.546.466l-.364 1.673c-.353-.231-.721-.378-1.1-.378-.88 0-1.51.803-1.51 2.242 0 .828.457 1.507 1.178 1.507.429 0 .73-.09 1.1-.305l-.247 1.8zM20.996 17.842a27.492 27.492 0 0 0-.21 1.817h-1.585l.134-1.133h-.016c-.497.77-1.01 1.294-1.908 1.294-.995 0-1.535-1.042-1.535-2.403 0-.47.03-.734.135-1.466l.449-3.243h1.764l-.473 3.252c-.048.35-.115.696-.115 1.057 0 .41.187.825.663.8.723 0 1.15-.88 1.271-1.908l.487-3.201h1.708l-.769 5.134zM54.231 19.574h-.266v-1.162h-.386v-.249h1.038v.25h-.386zM56 19.574h-.25v-1.18h-.003l-.238 1.18h-.261l-.233-1.18h-.004v1.18h-.248v-1.41h.389l.231 1.112h.004l.227-1.113H56z"/>
        </g>
    </g>
</svg>
