<svg xmlns="http://www.w3.org/2000/svg" width="24" height="15" viewBox="0 0 24 15">
    <g fill="none" fill-rule="evenodd">
        <path fill="#FF5F00" d="M8.384 1.613h6.192v11.632H8.384z"/>
        <path fill="#EB001B" d="M8.777 7.43c-.002-2.27.995-4.415 2.703-5.817C8.58-.771 4.412-.423 1.908 2.411c-2.503 2.834-2.503 7.203 0 10.037 2.504 2.834 6.67 3.18 9.572.797C9.772 11.844 8.776 9.7 8.777 7.43z"/>
        <path fill="#F79E1B" d="M22.931 7.43c0 2.832-1.547 5.416-3.984 6.654-2.437 1.237-5.337.912-7.467-.839 1.708-1.402 2.704-3.546 2.704-5.816s-.996-4.414-2.704-5.816c2.13-1.75 5.03-2.076 7.467-.838 2.437 1.237 3.984 3.82 3.984 6.653v.002z"/>
        <path fill="#F79E1B" fill-rule="nonzero" d="M22.351 12.285v-.464h.155v-.096h-.393v.096h.169v.464h.069zm.762 0v-.56h-.118l-.139.4-.139-.4h-.105v.56h.086v-.42l.128.364h.09l.128-.364v.424l.07-.004z"/>
    </g>
</svg>
